<?xml version="1.0" encoding="UTF-8" standalone="no"?>
<!-- Uploaded to: SVG Repo, www.svgrepo.com, Generator: SVG Repo Mixer Tools -->

<svg
   fill="#000000"
   height="800"
   width="800"
   version="1.1"
   id="Layer_1"
   viewBox="0 0 485 485"
   xml:space="preserve"
   sodipodi:docname="open-hand-svgrepo-com.svg"
   xmlns:inkscape="http://www.inkscape.org/namespaces/inkscape"
   xmlns:sodipodi="http://sodipodi.sourceforge.net/DTD/sodipodi-0.dtd"
   xmlns="http://www.w3.org/2000/svg"
   xmlns:svg="http://www.w3.org/2000/svg"><defs
   id="defs1" /><sodipodi:namedview
   id="namedview1"
   pagecolor="#ffffff"
   bordercolor="#000000"
   borderopacity="0.25"
   inkscape:showpageshadow="2"
   inkscape:pageopacity="0.0"
   inkscape:pagecheckerboard="0"
   inkscape:deskcolor="#d1d1d1" />
<g
   id="g1"
   style="display:inline">
	<path
   d="m 382.5,69.429 c -7.441,0 -14.5,1.646 -20.852,4.573 -4.309,-23.218 -24.7,-40.859 -49.148,-40.859 -7.68,0 -14.958,1.744 -21.467,4.852 C 285.641,16.205 265.932,0 242.5,0 219.068,0 199.359,16.206 193.967,37.995 187.459,34.888 180.18,33.143 172.5,33.143 c -27.57,0 -50,22.43 -50,50 v 122.222 c -6.129,-2.686 -12.891,-4.187 -20,-4.187 -27.57,0 -50,22.43 -50,50 V 354 c 0,72.233 58.766,131 131,131 h 118 c 72.233,0 131,-58.767 131,-131 V 119.429 c 0,-27.571 -22.43,-50 -50,-50 z M 402.5,354 c 0,55.691 -45.309,101 -101,101 h -118 c -55.691,0 -101,-45.309 -101,-101 V 251.178 c 0,-11.028 8.972,-20 20,-20 11.028,0 20,8.972 20,20 v 80 h 30 V 83.143 c 0,-11.028 8.972,-20 20,-20 11.028,0 20,8.972 20,20 v 158.035 h 30 V 50 c 0,-11.028 8.972,-20 20,-20 11.028,0 20,8.972 20,20 v 191.178 h 30 V 83.143 c 0,-11.028 8.972,-20 20,-20 11.028,0 20,8.972 20,20 v 158.035 h 30 v -121.75 c 0,-11.028 8.972,-20 20,-20 11.028,0 20,8.972 20,20 z"
   id="path1" />
</g>
<path
   style="fill:#b3b3b3;stroke:#060607;stroke-width:0.0698758"
   d="m 171.93774,454.09025 c -10.81316,-1.40179 -23.46096,-5.24656 -33.05951,-10.04967 -28.10906,-14.06575 -47.279833,-39.11253 -54.261086,-70.89255 l -1.421463,-6.47078 v -60.39389 -60.39391 l 1.633341,-3.08132 c 2.209084,-4.16748 5.687662,-7.54446 9.767548,-9.48231 4.433507,-2.1058 11.14579,-2.21155 15.51487,-0.24442 4.05069,1.82377 8.19599,5.86591 10.20064,9.94683 l 1.70825,3.47749 0.17429,42.36817 0.1743,42.36817 h 15.06812 15.06813 l 0.17259,-125.87199 c 0.13643,-99.49527 0.3359,-126.347419 0.95186,-128.140822 1.97318,-5.745086 7.79863,-11.40175 13.27781,-12.893089 3.65145,-0.993868 8.50652,-0.827519 12.26808,0.420338 2.38463,0.791077 4.22659,2.063929 6.98475,4.826683 6.33987,6.350415 5.80607,-1.993398 5.80607,90.75532 v 80.92897 h 15.39735 15.39736 l 0.16332,-98.14009 0.16331,-98.140086 1.51824,-3.081322 c 0.83503,-1.694727 2.84239,-4.377463 4.4608,-5.961637 9.47428,-9.273847 25.30488,-6.261264 31.32738,5.961637 l 1.51824,3.081322 0.16331,98.140086 0.16332,98.14009 h 15.39736 15.39735 V 160.3385 c 0,-92.748718 -0.5338,-84.404905 5.80607,-90.75532 2.7725,-2.777128 4.59631,-4.034345 7.01784,-4.837675 10.10108,-3.350968 20.9764,1.54036 24.86908,11.18521 l 1.43979,3.567381 0.16946,80.884684 0.16945,80.88469 h 15.07176 15.07177 l 0.16539,-63.02634 0.16539,-63.02635 2.01552,-4.09374 c 4.56798,-9.27806 14.43479,-13.40652 24.13341,-10.09787 4.69846,1.60286 9.90168,6.79238 11.68759,11.65681 l 1.32212,3.60119 -0.18596,125.50618 -0.18595,125.50617 -1.40305,6.16265 c -6.25668,27.4813 -21.11131,49.49047 -43.47566,64.41516 -9.98024,6.66023 -22.60233,11.97224 -35.40814,14.90152 -5.94037,1.35883 -6.0934,1.36174 -76.82263,1.45931 -38.97871,0.0538 -71.70234,-0.0101 -72.71918,-0.14191 z"
   id="path2" /></svg>
