<?xml version="1.0" encoding="UTF-8" standalone="no"?>
<!-- Created with Inkscape (http://www.inkscape.org/) -->

<svg
   width="16"
   height="16"
   viewBox="0 0 4.2333332 4.2333333"
   version="1.1"
   id="svg1"
   inkscape:version="1.3.2 (091e20e, 2023-11-25, custom)"
   sodipodi:docname="baord.svg"
   xmlns:inkscape="http://www.inkscape.org/namespaces/inkscape"
   xmlns:sodipodi="http://sodipodi.sourceforge.net/DTD/sodipodi-0.dtd"
   xmlns="http://www.w3.org/2000/svg"
   xmlns:svg="http://www.w3.org/2000/svg">
  <sodipodi:namedview
     id="namedview1"
     pagecolor="#ffffff"
     bordercolor="#000000"
     borderopacity="0.25"
     inkscape:showpageshadow="2"
     inkscape:pageopacity="0.0"
     inkscape:pagecheckerboard="0"
     inkscape:deskcolor="#d1d1d1"
     inkscape:document-units="mm"
     showgrid="true"
     inkscape:zoom="44.870482"
     inkscape:cx="7.9228032"
     inkscape:cy="8.2570986"
     inkscape:window-width="1920"
     inkscape:window-height="1001"
     inkscape:window-x="-9"
     inkscape:window-y="-9"
     inkscape:window-maximized="1"
     inkscape:current-layer="layer2">
    <inkscape:grid
       id="grid6"
       units="mm"
       originx="0"
       originy="0"
       spacingx="0.99999997"
       spacingy="0.99999999"
       empcolor="#0099e5"
       empopacity="0.30196078"
       color="#0099e5"
       opacity="0.14901961"
       empspacing="5"
       dotted="false"
       gridanglex="30"
       gridanglez="30"
       visible="true" />
  </sodipodi:namedview>
  <defs
     id="defs1" />
  <g
     inkscape:groupmode="layer"
     id="layer2"
     inkscape:label="Layer 2">
    <path
       style="display:inline;fill:#000000;stroke:#060607;stroke-width:0.026;stroke-dasharray:none;stroke-opacity:1;fill-opacity:1"
       d="M 2.8091149,0.81071422 0.3089562,2.5266251 2.2725244,3.9948786 3.7938475,0.84609383 Z"
       id="path11-6" />
  </g>
  <g
     inkscape:label="Layer 1"
     inkscape:groupmode="layer"
     id="layer1"
     style="display:inline"
     sodipodi:insensitive="true">
    <path
       style="fill:#002255;stroke:#060607;stroke-width:0.026;stroke-dasharray:none;stroke-opacity:1"
       d="M 2.7714023,0.54248729 0.27124364,2.2583982 2.2348118,3.7266517 3.7561349,0.5778669 Z"
       id="path11" />
    <path
       d="M 1.1053589,2.0164144 A 0.32726136,0.14446673 0 0 0 0.77824707,2.1611084 0.32726136,0.14446673 0 0 0 1.1053589,2.3058024 0.32726136,0.14446673 0 0 0 1.4329875,2.1611084 0.32726136,0.14446673 0 0 0 1.1053589,2.0164144 Z"
       style="fill:#00112b;stroke:#13121d;stroke-width:0.0263526;stroke-dasharray:none;stroke-dashoffset:0;stroke-opacity:1"
       id="path14" />
    <ellipse
       style="fill:#00112b;stroke:#13121d;stroke-width:0.0225191;stroke-dasharray:none;stroke-dashoffset:0;stroke-opacity:1"
       id="path13"
       cx="1.9046021"
       cy="2.6534703"
       rx="0.47762468"
       ry="0.23586404" />
    <path
       d="M 1.7774968,1.4916169 A 0.26229459,0.11323866 0 0 0 1.5153221,1.6050337 0.26229459,0.11323866 0 0 0 1.7774968,1.7184505 0.26229459,0.11323866 0 0 0 2.0400858,1.6050337 0.26229459,0.11323866 0 0 0 1.7774968,1.4916169 Z"
       style="fill:#00112b;stroke:#13121d;stroke-width:0.0208874;stroke-dasharray:none;stroke-dashoffset:0;stroke-opacity:1"
       id="path15" />
    <ellipse
       style="fill:#00112b;stroke:#13121d;stroke-width:0.0178489;stroke-dasharray:none;stroke-dashoffset:0;stroke-opacity:1"
       id="ellipse15"
       cx="2.418077"
       cy="1.9909661"
       rx="0.38280833"
       ry="0.18487944" />
    <path
       d="m 2.3211121,1.1083378 a 0.19853091,0.07420357 0 0 0 -0.1984402,0.07432 0.19853091,0.07420357 0 0 0 0.1984402,0.07432 0.19853091,0.07420357 0 0 0 0.1987537,-0.07432 0.19853091,0.07420357 0 0 0 -0.1987537,-0.07432 z"
       style="fill:#00112b;stroke:#13121d;stroke-width:0.0147102;stroke-dasharray:none;stroke-dashoffset:0;stroke-opacity:1"
       id="path16" />
    <ellipse
       style="fill:#00112b;stroke:#13121d;stroke-width:0.0125703;stroke-dasharray:none;stroke-dashoffset:0;stroke-opacity:1"
       id="ellipse16"
       cx="2.8059676"
       cy="1.4355537"
       rx="0.2897478"
       ry="0.12114868" />
    <path
       d="M 2.7322073,0.77812813 A 0.17326605,0.05175839 0 0 0 2.5590204,0.82996773 0.17326605,0.05175839 0 0 0 2.7322073,0.88180733 0.17326605,0.05175839 0 0 0 2.9056677,0.82996773 0.17326605,0.05175839 0 0 0 2.7322073,0.77812813 Z"
       style="fill:#00112b;stroke:#13121d;stroke-width:0.0114773;stroke-dasharray:none;stroke-dashoffset:0;stroke-opacity:1"
       id="path17" />
    <ellipse
       style="fill:#00112b;stroke:#13121d;stroke-width:0.00980767;stroke-dasharray:none;stroke-dashoffset:0;stroke-opacity:1"
       id="ellipse17"
       cx="3.1553605"
       cy="1.0063674"
       rx="0.25287476"
       ry="0.084503494" />
  </g>
</svg>
